<?xml version="1.0" encoding="iso-8859-1"?>
<!-- Generator: Adobe Illustrator 19.0.0, SVG Export Plug-In . SVG Version: 6.00 Build 0)  -->
<svg version="1.1" id="Layer_1" xmlns="http://www.w3.org/2000/svg" xmlns:xlink="http://www.w3.org/1999/xlink" x="0px" y="0px"
	 viewBox="0 0 330 330" style="enable-background:new 0 0 330 330;" xml:space="preserve">
<g id="XMLID_85_">
	<path id="XMLID_86_" d="M110,285c0,8.284,6.716,15,15,15h80c8.284,0,15-6.716,15-15s-6.716-15-15-15h-80
		C116.716,270,110,276.716,110,285z"/>
	<g id="XMLID_87_">
		<path id="XMLID_88_" d="M315,150h-35.115c0.072-1.665,0.115-3.333,0.115-5c0-63.411-51.589-115-115-115S50,81.589,50,145
			c0,1.668,0.043,3.335,0.115,5H15c-8.284,0-15,6.716-15,15s6.716,15,15,15h49.956c0.678,0.095,1.364,0.157,2.061,0.157
			c0.673,0,1.353-0.063,2.035-0.157h193.891c0.063,0.001,0.128,0.001,0.192,0H315c8.284,0,15-6.716,15-15S323.284,150,315,150z"/>
		<path id="XMLID_89_" d="M275,240c8.284,0,15-6.716,15-15s-6.716-15-15-15h-80c-8.284,0-15,6.716-15,15s6.716,15,15,15H275z"/>
		<path id="XMLID_90_" d="M135,210H55c-8.284,0-15,6.716-15,15s6.716,15,15,15h80c8.284,0,15-6.716,15-15S143.284,210,135,210z"/>
	</g>
</g>
<g>
</g>
<g>
</g>
<g>
</g>
<g>
</g>
<g>
</g>
<g>
</g>
<g>
</g>
<g>
</g>
<g>
</g>
<g>
</g>
<g>
</g>
<g>
</g>
<g>
</g>
<g>
</g>
<g>
</g>
</svg>
