<?xml version="1.0" encoding="UTF-8"?>
<svg xmlns="http://www.w3.org/2000/svg" xmlns:xlink="http://www.w3.org/1999/xlink" width="50pt" height="50pt" viewBox="0 0 50 50" version="1.1">
<g id="surface1">
<path style=" stroke:none;fill-rule:nonzero;fill:rgb(0%,0%,0%);fill-opacity:1;" d="M 48.398438 12.644531 C 48.398438 11.257812 47.273438 10.132812 45.886719 10.132812 L 4.019531 10.132812 C 2.632812 10.132812 1.507812 11.257812 1.507812 12.644531 L 1.507812 36.089844 C 1.507812 37.476562 2.632812 38.601562 4.019531 38.601562 L 45.886719 38.601562 C 47.273438 38.601562 48.398438 37.476562 48.398438 36.089844 Z M 14.066406 31.902344 L 7.367188 31.902344 C 6.90625 31.902344 6.53125 31.527344 6.53125 31.066406 L 6.53125 17.667969 C 6.53125 17.207031 6.90625 16.832031 7.367188 16.832031 C 7.832031 16.832031 8.207031 17.207031 8.207031 17.667969 L 8.207031 30.226562 L 14.066406 30.226562 C 14.53125 30.226562 14.90625 30.601562 14.90625 31.066406 C 14.90625 31.527344 14.53125 31.902344 14.066406 31.902344 Z M 19.089844 31.066406 C 19.089844 31.527344 18.714844 31.902344 18.253906 31.902344 C 17.792969 31.902344 17.417969 31.527344 17.417969 31.066406 L 17.417969 17.667969 C 17.417969 17.207031 17.792969 16.832031 18.253906 16.832031 C 18.714844 16.832031 19.089844 17.207031 19.089844 17.667969 Z M 32.4375 17.960938 L 27.410156 31.359375 C 27.289062 31.6875 26.976562 31.902344 26.628906 31.902344 L 26.605469 31.902344 C 26.246094 31.890625 25.933594 31.65625 25.828125 31.316406 L 21.640625 17.917969 C 21.503906 17.476562 21.746094 17.007812 22.1875 16.867188 C 22.632812 16.730469 23.101562 16.976562 23.242188 17.417969 L 26.699219 28.488281 L 30.867188 17.371094 C 31.027344 16.9375 31.511719 16.71875 31.945312 16.878906 C 32.378906 17.042969 32.597656 17.523438 32.4375 17.957031 Z M 40.863281 23.527344 C 41.324219 23.527344 41.699219 23.902344 41.699219 24.367188 C 41.699219 24.828125 41.324219 25.203125 40.863281 25.203125 L 36.675781 25.203125 L 36.675781 30.226562 L 42.535156 30.226562 C 43 30.226562 43.375 30.601562 43.375 31.066406 C 43.375 31.527344 43 31.902344 42.535156 31.902344 L 35.839844 31.902344 C 35.375 31.902344 35 31.527344 35 31.066406 L 35 17.667969 C 35 17.207031 35.375 16.832031 35.839844 16.832031 L 42.535156 16.832031 C 43 16.832031 43.375 17.207031 43.375 17.667969 C 43.375 18.128906 43 18.503906 42.535156 18.503906 L 36.675781 18.503906 L 36.675781 23.527344 Z M 40.863281 23.527344 "/>
</g>
</svg>
